# xmcd
#
# Track frame offsets:
#	150
#	18985
#	39717
#	57850
#	95081
#	114490
#	136314
#	168241
#	183178
#	211703
#	261766
#	302212
#	323409
#
# Disc length: 4988 seconds
#
# Revision: 1
# Processed by: cddbd v1.5.2PL0 Copyright (c) Steve Scherf et al.
# Submitted via: audiograbber 1.83.01
#
DISCID=a8137a0d
DTITLE=Jeff Healey Band, The - Boston Broadcast 1989 (FM)
DYEAR=1989
DGENRE=Blues
TTITLE0=The Better It Gets
TTITLE1=I'm Tore Down
TTITLE2=My Little Girl
TTITLE3=Blue Jean Blues
TTITLE4=Confidence Man
TTITLE5=I Need to Be Loved
TTITLE6=When the Night Comes Falling from the Sky
TTITLE7=The River of No Return
TTITLE8=Angel Eyes
TTITLE9=Roadhouse Blues
TTITLE10=See the Light
TTITLE11=That's What They Say
TTITLE12=All Along the Watchtower
EXTD=
EXTT0=
EXTT1=
EXTT2=
EXTT3=
EXTT4=
EXTT5=
EXTT6=
EXTT7=
EXTT8=
EXTT9=
EXTT10=
EXTT11=
EXTT12=
PLAYORDER=
